:SAMPLES-PER-SECOND 30
:FULLY-SPECIFIED
:DEGREES
281
root  -10.3842 34.5891 -13.0407 -173.239 1.91812 179.052
RightUpLeg  -3.17069 -16.2742 -4.25273
RightLeg  6.87033 -5.70544 -0.315203
RightFoot  2.87053 0.0135361 -0.10726
RightToes  -26.9495 -0.123136 -0.23235
Spine  -2.90461 0.265664 0.193813
Spine1  -5.88087 0.709272 0.901552
HEad  -56.9037 1.92427 3.26729
LeftShoulder1  -1.94126e-019 -3.10601e-018 -2.51263e-017
LeftArm  -7.55033 24.2169 -76.1539
LeftForeArm  29.0323 -25.6392 -4.40445
LeftHand  -0.256937 0.472352 6.06861
RightShoulder  -4.96962e-017 0 -2.36833e-017
RightArm  -32.1642 -21.4207 72.8849
RightForeArm  52.356 14.2074 1.28686
RightHand  -0.396709 -2.21614 -14.2843
LeftUpLeg  -3.86611 0.49626 2.99445
LeftLeg  3.47901 12.3091 -0.0437137
LeftFoot  6.9186 -0.079533 1.62624
LeftToes  -24.0681 2.14545e-006 -7.7278e-009
282
root  -10.3916 34.5924 -12.9801 -173.268 1.71611 179.058
RightUpLeg  -3.21176 -16.2775 -4.2229
RightLeg  6.88741 -5.90013 -0.327697
RightFoot  2.91624 0.0139379 -0.121624
RightToes  -26.891 -0.123245 -0.232064
Spine  -2.84171 0.217546 0.15281
Spine1  -5.75533 0.603606 0.824261
HEad  -56.7818 1.70442 3.61088
LeftShoulder1  -1.94126e-019 -3.10601e-018 -2.51263e-017
LeftArm  -7.90903 24.2949 -76.0922
LeftForeArm  28.877 -25.3923 -4.35021
LeftHand  -0.256874 0.528773 6.17855
RightShoulder  -4.96962e-017 0 -2.36833e-017
RightArm  -31.7008 -21.6303 72.767
RightForeArm  51.8733 14.5155 1.2615
RightHand  -0.403144 -2.25681 -14.2106
LeftUpLeg  -3.9644 0.317461 3.00063
LeftLeg  3.46233 12.2973 -0.0472245
LeftFoot  6.99855 -0.079718 1.6419
LeftToes  -24.0686 2.14545e-006 -7.7278e-009
283
root  -10.3997 34.592 -12.913 -173.299 1.61143 179.067
RightUpLeg  -3.31491 -16.3874 -4.20272
RightLeg  6.97358 -5.8793 -0.335396
RightFoot  2.94327 0.013572 -0.124265
RightToes  -26.9529 -0.123331 -0.231685
Spine  -2.78365 0.201969 0.104763
Spine1  -5.64243 0.565124 0.724709
HEad  -56.5095 1.31292 3.95931
LeftShoulder1  -1.94126e-019 -3.10601e-018 -2.51263e-017
LeftArm  -8.22401 24.401 -76.1398
LeftForeArm  28.8467 -24.9544 -4.27072
LeftHand  -0.258253 0.548702 6.20493
RightShoulder  -4.96962e-017 0 -2.36833e-017
RightArm  -31.6444 -21.767 72.7291
RightForeArm  51.9472 14.4369 1.2686
RightHand  -0.405295 -2.23431 -14.1472
LeftUpLeg  -4.11923 0.260204 3.00492
LeftLeg  3.57979 12.2576 -0.0221544
LeftFoot  7.04866 -0.0791224 1.64598
LeftToes  -24.211 2.14545e-006 -7.7278e-009
284
root  -10.4057 34.5845 -12.8316 -173.332 1.57455 179.091
RightUpLeg  -3.50398 -16.5474 -4.16744
RightLeg  7.16701 -5.7341 -0.346518
RightFoot  2.91377 0.0124532 -0.115341
RightToes  -27.0164 -0.123394 -0.231208
Spine  -2.71733 0.213222 0.051294
Spine1  -5.51505 0.581818 0.607939
HEad  -56.3079 0.835908 4.28574
LeftShoulder1  -1.94126e-019 -3.10601e-018 -2.51263e-017
LeftArm  -8.52455 24.5163 -76.2385
LeftForeArm  28.9617 -24.4646 -4.18346
LeftHand  -0.261291 0.527369 6.13501
RightShoulder  -4.96962e-017 0 -2.36833e-017
RightArm  -31.9686 -21.8214 72.7975
RightForeArm  52.3986 14.0617 1.30302
RightHand  -0.39954 -2.28296 -14.2127
LeftUpLeg  -4.32971 0.266273 3.03186
LeftLeg  3.7956 12.1936 0.0235107
LeftFoot  7.0192 -0.077129 1.62853
LeftToes  -24.3555 2.14545e-006 -7.7278e-009
285
root  -10.4094 34.5747 -12.7424 -173.359 1.66396 179.142
RightUpLeg  -3.8 -16.5919 -4.09669
RightLeg  7.4906 -5.60314 -0.370337
RightFoot  2.82372 0.011046 -0.101436
RightToes  -26.9408 -0.123432 -0.230626
Spine  -2.63505 0.26612 -0.0017002
Spine1  -5.3563 0.681173 0.488801
HEad  -56.2998 0.326863 4.62306
LeftShoulder1  -1.94126e-019 -3.10601e-018 -2.51263e-017
LeftArm  -8.96981 24.6047 -76.415
LeftForeArm  29.1268 -23.9161 -4.09118
LeftHand  -0.262836 0.511257 6.13267
RightShoulder  -4.96962e-017 0 -2.36833e-017
RightArm  -32.6548 -21.8215 72.9469
RightForeArm  53.0998 13.5037 1.35774
RightHand  -0.391237 -2.30832 -14.3174
LeftUpLeg  -4.54985 0.375995 3.08572
LeftLeg  4.05431 12.1598 0.077903
LeftFoot  6.94863 -0.0747905 1.60551
LeftToes  -24.5743 2.14545e-006 -7.7278e-009
286
root  -10.4125 34.5659 -12.6463 -173.398 1.82549 179.191
RightUpLeg  -4.10236 -16.4581 -4.01594
RightLeg  7.79936 -5.56457 -0.397875
RightFoot  2.76097 0.0101913 -0.0945141
RightToes  -26.9231 -0.123317 -0.229935
Spine  -2.52741 0.323199 -0.0512332
Spine1  -5.14629 0.78808 0.379675
HEad  -56.4186 -0.100691 4.84
LeftShoulder1  -1.94126e-019 -3.10601e-018 -2.51263e-017
LeftArm  -9.47479 24.6996 -76.6507
LeftForeArm  29.276 -23.3252 -3.98647
LeftHand  -0.262471 0.499722 6.21838
RightShoulder  -4.96962e-017 0 -2.36833e-017
RightArm  -33.2537 -21.7994 73.1502
RightForeArm  53.9177 12.9955 1.40563
RightHand  -0.386747 -2.32098 -14.3483
LeftUpLeg  -4.7459 0.49583 3.13365
LeftLeg  4.29392 12.1751 0.128505
LeftFoot  6.88179 -0.0729725 1.59001
LeftToes  -24.7635 2.14545e-006 -7.7278e-009
287
root  -10.4181 34.5576 -12.5466 -173.45 2.02516 179.241
RightUpLeg  -4.39864 -16.3438 -3.94422
RightLeg  8.09731 -5.4906 -0.421266
RightFoot  2.67116 0.0091111 -0.0834028
RightToes  -26.8011 -0.122823 -0.229129
Spine  -2.40075 0.376599 -0.101935
Spine1  -4.89775 0.887478 0.271222
HEad  -56.6128 -0.412079 4.98948
LeftShoulder1  -1.94126e-019 -3.10601e-018 -2.51263e-017
LeftArm  -9.91031 24.8266 -76.8533
LeftForeArm  29.392 -22.8255 -3.89056
LeftHand  -0.264492 0.401538 6.16705
RightShoulder  -4.96962e-017 0 -2.36833e-017
RightArm  -33.6914 -21.7792 73.4087
RightForeArm  54.6577 12.6233 1.43776
RightHand  -0.38624 -2.3151 -14.3368
LeftUpLeg  -4.91642 0.685409 3.17782
LeftLeg  4.50542 12.1534 0.172783
LeftFoot  6.79006 -0.0705975 1.5649
LeftToes  -24.8516 2.14545e-006 -7.7278e-009
